<svg xmlns="http://www.w3.org/2000/svg" width="25" height="24" viewBox="0 0 25 24" fill="none">
  <g clip-path="url(#clip0_1688_25603)">
    <path d="M7.25 15.0798V17.25C7.25 17.6478 7.40804 18.0294 7.68934 18.3107C7.97064 18.592 8.35218 18.75 8.75 18.75H17.5241L21.0312 21.5831L7.25 15.0798ZM7.25 15.0798L7.56384 14.8267L7.25 14.4375H6.75V14.8406L7.25 15.0798ZM17.25 7.5V8H17.75H20.75C21.0152 8 21.2696 8.10536 21.4571 8.29289L21.8107 7.93934L21.4571 8.29289C21.6446 8.48043 21.75 8.73478 21.75 9V21C21.75 21.0663 21.7237 21.1299 21.6768 21.1768C21.6301 21.2234 21.5669 21.2497 21.501 21.25C21.4444 21.2496 21.3897 21.23 21.3457 21.1944L21.3454 21.1942L17.8383 18.3611L17.7008 18.25H17.5241H8.75C8.48478 18.25 8.23043 18.1446 8.04289 17.9571C7.85536 17.7696 7.75 17.5152 7.75 17.25V14.4375V13.3921L6.93616 14.0483L3.65625 16.6928C3.65608 16.6929 3.65591 16.6931 3.65575 16.6932C3.61913 16.7224 3.57506 16.7407 3.52854 16.746C3.48182 16.7514 3.43452 16.7435 3.3921 16.7232C3.34967 16.7029 3.31383 16.671 3.28869 16.6313L2.86608 16.8985L3.28869 16.6313C3.26366 16.5917 3.25025 16.5458 3.25 16.499V4.5C3.25 4.23478 3.35536 3.98043 3.54289 3.79289C3.73043 3.60536 3.98478 3.5 4.25 3.5H16.25C16.5152 3.5 16.7696 3.60536 16.9571 3.79289L17.3107 3.43934L16.9571 3.79289C17.1446 3.98043 17.25 4.23478 17.25 4.5V7.5ZM17.9465 17.8056L17.9465 17.8057L20.4356 19.8185L21.25 20.477V19.4297V9V8.5H20.75H17.75H17.25V9V12.75C17.25 13.0152 17.1446 13.2696 16.9571 13.4571C16.7696 13.6446 16.5152 13.75 16.25 13.75H8.75H8.25V14.25V17.25V17.75H8.75H17.791C17.8476 17.7504 17.9024 17.77 17.9465 17.8056Z" fill="#F1C111" stroke="#F1C111"/>
  </g>
  <defs>
    <clipPath id="clip0_1688_25603">
      <rect width="24" height="24" fill="white" transform="translate(0.5)"/>
    </clipPath>
  </defs>
</svg>