<svg xmlns="http://www.w3.org/2000/svg" width="20" height="20" viewBox="0 0 20 20" fill="none">
  <g clip-path="url(#clip0_1804_2154)">
    <path d="M10.625 16.8746V2.49963C10.6249 2.38651 10.5942 2.27554 10.536 2.17854C10.4778 2.08153 10.3944 2.00214 10.2946 1.94881C10.1949 1.89549 10.0825 1.87023 9.96956 1.87574C9.85658 1.88125 9.74722 1.91732 9.65313 1.98009L3.40313 6.1465C3.3174 6.2037 3.24715 6.2812 3.19862 6.37212C3.1501 6.46303 3.12481 6.56454 3.125 6.66759V16.8746" stroke="#444A5B" stroke-width="1.5" stroke-linecap="round" stroke-linejoin="round"/>
    <path d="M10.625 6.875H16.25C16.4158 6.875 16.5747 6.94085 16.6919 7.05806C16.8092 7.17527 16.875 7.33424 16.875 7.5V16.875" stroke="#444A5B" stroke-width="1.5" stroke-linecap="round" stroke-linejoin="round"/>
    <path d="M1.25 16.875H18.75" stroke="#444A5B" stroke-width="1.5" stroke-linecap="round" stroke-linejoin="round"/>
    <path d="M8.125 8.75V10" stroke="#444A5B" stroke-width="1.5" stroke-linecap="round" stroke-linejoin="round"/>
    <path d="M5.625 8.75V10" stroke="#444A5B" stroke-width="1.5" stroke-linecap="round" stroke-linejoin="round"/>
    <path d="M5.625 13.125V14.375" stroke="#444A5B" stroke-width="1.5" stroke-linecap="round" stroke-linejoin="round"/>
    <path d="M8.125 13.125V14.375" stroke="#444A5B" stroke-width="1.5" stroke-linecap="round" stroke-linejoin="round"/>
  </g>
  <defs>
    <clipPath id="clip0_1804_2154">
      <rect width="20" height="20" fill="white"/>
    </clipPath>
  </defs>
</svg>