<svg xmlns="http://www.w3.org/2000/svg" width="25" height="24" viewBox="0 0 25 24" fill="none">
  <g clip-path="url(#clip0_1656_2884)">
    <path d="M21 10.8285V10.8312V19.4984C21 19.7636 20.8946 20.018 20.7071 20.2055C20.5196 20.393 20.2652 20.4984 20 20.4984H16.25C15.9848 20.4984 15.7304 20.393 15.5429 20.2055C15.3554 20.018 15.25 19.7636 15.25 19.4984V15.7484C15.25 15.4169 15.1183 15.0989 14.8839 14.8645C14.6495 14.6301 14.3315 14.4984 14 14.4984H11C10.6685 14.4984 10.3505 14.6301 10.1161 14.8645C9.8817 15.0989 9.75 15.4169 9.75 15.7484V19.4984C9.75 19.7636 9.64464 20.018 9.45711 20.2055C9.26957 20.393 9.01522 20.4984 8.75 20.4984H5C4.73478 20.4984 4.48043 20.393 4.29289 20.2055C4.10536 20.018 4 19.7636 4 19.4984V10.8312V10.8311C3.99998 10.6927 4.02869 10.5558 4.08431 10.4291L3.62646 10.2282L4.08431 10.4291C4.13993 10.3024 4.22125 10.1886 4.32312 10.0949L4.32315 10.0949L4.32782 10.0905L11.8278 3.01427L11.8331 3.00928L11.8382 3.00415L11.8393 3.00306C12.0223 2.84014 12.2589 2.75 12.5042 2.75C12.7481 2.75 12.9834 2.83914 13.166 3.00034C13.1722 3.00644 13.1785 3.01242 13.1848 3.01826L20.6806 10.0905L20.6825 10.0923C20.7834 10.1865 20.8636 10.3005 20.9183 10.4272C20.9729 10.5539 21.0007 10.6906 21 10.8285ZM21.5 10.8312V19.4984C21.5 19.8962 21.342 20.2778 21.0607 20.5591C20.7794 20.8404 20.3978 20.9984 20 20.9984H16.25C15.8522 20.9984 15.4706 20.8404 15.1893 20.5591C14.908 20.2778 14.75 19.8962 14.75 19.4984V15.7484C14.75 15.5495 14.671 15.3587 14.5303 15.2181C14.3897 15.0774 14.1989 14.9984 14 14.9984H11C10.8011 14.9984 10.6103 15.0774 10.4697 15.2181C10.329 15.3587 10.25 15.5495 10.25 15.7484V19.4984C10.25 19.8962 10.092 20.2778 9.81066 20.5591C9.52936 20.8404 9.14782 20.9984 8.75 20.9984H5C4.60218 20.9984 4.22064 20.8404 3.93934 20.5591C3.65804 20.2778 3.5 19.8962 3.5 19.4984L21.5 10.8312Z" fill="#F1C111" stroke="#F1C111"/>
  </g>
  <defs>
    <clipPath id="clip0_1656_2884">
      <rect width="24" height="24" fill="white" transform="translate(0.5)"/>
    </clipPath>
  </defs>
</svg>