<svg xmlns="http://www.w3.org/2000/svg" width="25" height="24" viewBox="0 0 25 24" fill="none">
  <g clip-path="url(#clip0_1688_22938)">
    <path d="M14.75 19.5004V15.0004C14.75 14.8014 14.671 14.6107 14.5303 14.47C14.3897 14.3294 14.1989 14.2504 14 14.2504H11C10.8011 14.2504 10.6103 14.3294 10.4697 14.47C10.329 14.6107 10.25 14.8014 10.25 15.0004V19.5004C10.25 19.6993 10.171 19.89 10.0303 20.0307C9.88968 20.1713 9.69891 20.2504 9.5 20.2504H5C4.80109 20.2504 4.61032 20.1713 4.46967 20.0307C4.32902 19.89 4.25 19.6993 4.25 19.5004V10.8322C4.25001 10.7277 4.27187 10.6243 4.31416 10.5288C4.35646 10.4332 4.41827 10.3475 4.49562 10.2772L11.9956 3.19535C12.1337 3.06966 12.3137 3 12.5005 3C12.6872 3 12.8672 3.06966 13.0053 3.19535L20.5053 10.2772C20.5827 10.3475 20.6445 10.4332 20.6868 10.5288C20.7291 10.6243 20.7509 10.7277 20.7509 10.8322V19.5004C20.7509 19.6993 20.6719 19.89 20.5313 20.0307C20.3906 20.1713 20.1998 20.2504 20.0009 20.2504H15.5C15.3011 20.2504 15.1103 20.1713 14.9697 20.0307C14.829 19.89 14.75 19.6993 14.75 19.5004Z" stroke="#90949E" stroke-width="1.5" stroke-linecap="round" stroke-linejoin="round"/>
  </g>
  <defs>
    <clipPath id="clip0_1688_22938">
      <rect width="24" height="24" fill="white" transform="translate(0.5)"/>
    </clipPath>
  </defs>
</svg>