<svg xmlns="http://www.w3.org/2000/svg" width="178" height="149" viewBox="0 0 178 149" fill="none">
<mask id="path-1-inside-1_1178_60070" fill="white">
<path d="M32.6254 136.18L173.371 54.9207C173.736 54.7101 173.987 54.3369 174.069 53.8835C174.151 53.4301 174.058 52.9334 173.809 52.5028L161.622 31.3934C160.649 31.955 159.453 32.0372 158.296 31.6222C157.14 31.2073 156.117 30.3292 155.454 29.1808C154.791 28.0324 154.542 26.7078 154.761 25.4986C154.98 24.2895 155.649 23.2948 156.622 22.7332L144.434 1.6238C144.186 1.19314 143.802 0.863964 143.369 0.70836C142.935 0.552755 142.486 0.583469 142.121 0.79407L42.5138 58.3026C42.689 58.4209 42.8384 58.5833 42.9479 58.7733C43.0574 58.9633 43.123 59.174 43.1374 59.3849C43.1518 59.5957 43.1147 59.7993 43.0302 59.9746C42.9457 60.1499 42.8162 60.2913 42.6554 60.3841C42.4945 60.477 42.3083 60.5179 42.1142 60.5035C41.9201 60.489 41.7253 60.4193 41.5498 60.3014C41.3744 60.1836 41.2239 60.0218 41.1141 59.8321C41.0043 59.6423 40.9392 59.4311 40.9244 59.2202L1.37538 82.0539C1.01061 82.2645 0.759729 82.6376 0.677611 83.091C0.595493 83.5445 0.688876 84.0411 0.937516 84.4717L13.125 105.581C14.0977 105.019 15.2938 104.937 16.4504 105.352C17.6071 105.767 18.6296 106.645 19.2927 107.794C19.9557 108.942 20.2049 110.267 19.9859 111.476C19.7669 112.685 19.0977 113.68 18.125 114.241L30.3125 135.351C30.5612 135.781 30.9445 136.111 31.3783 136.266C31.812 136.422 32.2606 136.391 32.6254 136.18ZM71.407 110.181C71.5884 110.077 71.8024 110.038 72.0218 110.07C72.2413 110.102 72.4564 110.203 72.64 110.361C72.8236 110.518 72.9671 110.726 73.053 110.956C73.1388 111.186 73.163 111.43 73.1222 111.655C73.0814 111.88 72.9778 112.078 72.8241 112.222C72.6703 112.367 72.4733 112.452 72.2584 112.467C72.0436 112.481 71.8209 112.425 71.6173 112.305C71.4138 112.186 71.2387 112.007 71.1151 111.793C70.9494 111.506 70.8871 111.175 70.9419 110.873C70.9966 110.571 71.1639 110.322 71.407 110.181ZM68.907 105.851C69.0884 105.747 69.3024 105.708 69.5218 105.739C69.7413 105.771 69.9564 105.873 70.14 106.031C70.3236 106.188 70.4671 106.396 70.553 106.626C70.6388 106.856 70.663 107.099 70.6222 107.325C70.5814 107.55 70.4778 107.748 70.3241 107.892C70.1703 108.037 69.9733 108.122 69.7584 108.137C69.5436 108.151 69.3209 108.095 69.1173 107.975C68.9138 107.855 68.7387 107.677 68.6151 107.463C68.4494 107.176 68.3871 106.845 68.4419 106.543C68.4966 106.24 68.6639 105.992 68.907 105.851ZM66.407 101.521C66.5884 101.416 66.8024 101.377 67.0218 101.409C67.2413 101.441 67.4564 101.543 67.64 101.7C67.8236 101.858 67.9671 102.065 68.053 102.296C68.1388 102.526 68.163 102.769 68.1222 102.995C68.0814 103.22 67.9778 103.417 67.8241 103.562C67.6703 103.706 67.4733 103.792 67.2584 103.806C67.0436 103.821 66.8209 103.765 66.6173 103.645C66.4138 103.525 66.2387 103.347 66.1151 103.133C65.9494 102.846 65.8871 102.515 65.9419 102.213C65.9966 101.91 66.1639 101.662 66.407 101.521ZM63.907 97.191C64.0884 97.0863 64.3024 97.0473 64.5218 97.0792C64.7413 97.1111 64.9564 97.2126 65.14 97.3704C65.3236 97.5281 65.4671 97.7353 65.553 97.9657C65.6388 98.1961 65.663 98.4392 65.6222 98.6647C65.5814 98.8901 65.4778 99.0874 65.3241 99.2318C65.1703 99.3763 64.9733 99.4615 64.7584 99.4763C64.5436 99.4911 64.3209 99.4349 64.1173 99.315C63.9138 99.1952 63.7387 99.017 63.6151 98.8029C63.4494 98.5158 63.3871 98.1848 63.4419 97.8825C63.4966 97.5802 63.6639 97.3314 63.907 97.191ZM61.407 92.8609C61.5884 92.7562 61.8024 92.7172 62.0218 92.7491C62.2413 92.781 62.4564 92.8825 62.64 93.0402C62.8236 93.198 62.9671 93.4051 63.053 93.6356C63.1388 93.866 63.163 94.1091 63.1222 94.3345C63.0814 94.56 62.9778 94.7572 62.8241 94.9017C62.6703 95.0462 62.4733 95.1314 62.2584 95.1462C62.0436 95.161 61.8209 95.1048 61.6173 94.9849C61.4138 94.8651 61.2387 94.6869 61.1151 94.4728C60.9494 94.1857 60.8871 93.8546 60.9419 93.5523C60.9966 93.25 61.1639 93.0013 61.407 92.8609ZM58.907 88.5308C59.0884 88.4261 59.3024 88.3871 59.5218 88.419C59.7413 88.4509 59.9564 88.5524 60.14 88.7101C60.3236 88.8679 60.4671 89.075 60.553 89.3054C60.6388 89.5359 60.663 89.779 60.6222 90.0044C60.5814 90.2298 60.4778 90.4271 60.3241 90.5716C60.1703 90.716 59.9733 90.8012 59.7584 90.816C59.5436 90.8308 59.3209 90.7746 59.1173 90.6548C58.9138 90.5349 58.7387 90.3568 58.6151 90.1427C58.4494 89.8556 58.3871 89.5245 58.4419 89.2222C58.4966 88.9199 58.6639 88.6712 58.907 88.5308ZM56.407 84.2007C56.5884 84.096 56.8024 84.057 57.0218 84.0889C57.2413 84.1207 57.4564 84.2222 57.64 84.38C57.8236 84.5377 57.9671 84.7449 58.053 84.9753C58.1388 85.2057 58.163 85.4489 58.1222 85.6743C58.0814 85.8997 57.9778 86.097 57.8241 86.2414C57.6703 86.3859 57.4733 86.4711 57.2584 86.4859C57.0436 86.5007 56.8208 86.4445 56.6173 86.3247C56.4138 86.2048 56.2387 86.0267 56.1151 85.8126C55.9494 85.5255 55.8871 85.1944 55.9419 84.8921C55.9966 84.5898 56.1639 84.3411 56.407 84.2007ZM53.907 79.8705C54.0884 79.7658 54.3024 79.7268 54.5218 79.7587C54.7413 79.7906 54.9564 79.8921 55.14 80.0499C55.3236 80.2076 55.4671 80.4148 55.553 80.6452C55.6388 80.8756 55.663 81.1187 55.6222 81.3442C55.5814 81.5696 55.4778 81.7669 55.3241 81.9113C55.1703 82.0558 54.9733 82.141 54.7584 82.1558C54.5436 82.1706 54.3208 82.1144 54.1173 81.9945C53.9138 81.8747 53.7387 81.6965 53.6151 81.4824C53.4494 81.1953 53.3871 80.8643 53.4419 80.562C53.4966 80.2597 53.6639 80.0109 53.907 79.8705ZM51.407 75.5404C51.5884 75.4357 51.8024 75.3967 52.0218 75.4286C52.2413 75.4605 52.4564 75.562 52.64 75.7197C52.8236 75.8775 52.9671 76.0846 53.053 76.3151C53.1388 76.5455 53.163 76.7886 53.1222 77.014C53.0814 77.2395 52.9778 77.4367 52.8241 77.5812C52.6703 77.7256 52.4733 77.8109 52.2584 77.8257C52.0436 77.8405 51.8208 77.7843 51.6173 77.6644C51.4138 77.5445 51.2387 77.3664 51.1151 77.1523C50.9494 76.8652 50.8871 76.5341 50.9419 76.2318C50.9966 75.9295 51.1639 75.6808 51.407 75.5404ZM48.907 71.2103C49.0884 71.1056 49.3024 71.0666 49.5218 71.0985C49.7413 71.1304 49.9564 71.2319 50.14 71.3896C50.3236 71.5473 50.4671 71.7545 50.553 71.9849C50.6388 72.2153 50.663 72.4585 50.6222 72.6839C50.5814 72.9093 50.4778 73.1066 50.3241 73.2511C50.1703 73.3955 49.9733 73.4807 49.7584 73.4955C49.5436 73.5103 49.3208 73.4541 49.1173 73.3343C48.9138 73.2144 48.7387 73.0363 48.6151 72.8222C48.4494 72.5351 48.3871 72.204 48.4419 71.9017C48.4966 71.5994 48.6639 71.3507 48.907 71.2103ZM46.407 66.8801C46.5884 66.7754 46.8024 66.7365 47.0218 66.7683C47.2413 66.8002 47.4564 66.9017 47.64 67.0595C47.8236 67.2172 47.9671 67.4244 48.053 67.6548C48.1388 67.8852 48.163 68.1283 48.1222 68.3538C48.0814 68.5792 47.9778 68.7765 47.8241 68.9209C47.6703 69.0654 47.4733 69.1506 47.2584 69.1654C47.0436 69.1802 46.8208 69.124 46.6173 69.0041C46.4138 68.8843 46.2387 68.7062 46.1151 68.4921C45.9494 68.2049 45.8871 67.8739 45.9419 67.5716C45.9966 67.2693 46.1639 67.0205 46.407 66.8801ZM43.907 62.55C44.0884 62.4453 44.3024 62.4063 44.5218 62.4382C44.7413 62.4701 44.9564 62.5716 45.14 62.7294C45.3236 62.8871 45.4671 63.0943 45.553 63.3247C45.6388 63.5551 45.663 63.7982 45.6222 64.0236C45.5814 64.2491 45.4778 64.4463 45.3241 64.5908C45.1703 64.7353 44.9733 64.8205 44.7584 64.8353C44.5436 64.8501 44.3208 64.7939 44.1173 64.674C43.9138 64.5542 43.7387 64.376 43.6151 64.1619C43.4494 63.8748 43.3871 63.5437 43.4419 63.2415C43.4966 62.9392 43.6639 62.6904 43.907 62.55Z"/>
</mask>
<path d="M32.6254 136.18L173.371 54.9207C173.736 54.7101 173.987 54.3369 174.069 53.8835C174.151 53.4301 174.058 52.9334 173.809 52.5028L161.622 31.3934C160.649 31.955 159.453 32.0372 158.296 31.6222C157.14 31.2073 156.117 30.3292 155.454 29.1808C154.791 28.0324 154.542 26.7078 154.761 25.4986C154.98 24.2895 155.649 23.2948 156.622 22.7332L144.434 1.6238C144.186 1.19314 143.802 0.863964 143.369 0.70836C142.935 0.552755 142.486 0.583469 142.121 0.79407L42.5138 58.3026C42.689 58.4209 42.8384 58.5833 42.9479 58.7733C43.0574 58.9633 43.123 59.174 43.1374 59.3849C43.1518 59.5957 43.1147 59.7993 43.0302 59.9746C42.9457 60.1499 42.8162 60.2913 42.6554 60.3841C42.4945 60.477 42.3083 60.5179 42.1142 60.5035C41.9201 60.489 41.7253 60.4193 41.5498 60.3014C41.3744 60.1836 41.2239 60.0218 41.1141 59.8321C41.0043 59.6423 40.9392 59.4311 40.9244 59.2202L1.37538 82.0539C1.01061 82.2645 0.759729 82.6376 0.677611 83.091C0.595493 83.5445 0.688876 84.0411 0.937516 84.4717L13.125 105.581C14.0977 105.019 15.2938 104.937 16.4504 105.352C17.6071 105.767 18.6296 106.645 19.2927 107.794C19.9557 108.942 20.2049 110.267 19.9859 111.476C19.7669 112.685 19.0977 113.68 18.125 114.241L30.3125 135.351C30.5612 135.781 30.9445 136.111 31.3783 136.266C31.812 136.422 32.2606 136.391 32.6254 136.18ZM71.407 110.181C71.5884 110.077 71.8024 110.038 72.0218 110.07C72.2413 110.102 72.4564 110.203 72.64 110.361C72.8236 110.518 72.9671 110.726 73.053 110.956C73.1388 111.186 73.163 111.43 73.1222 111.655C73.0814 111.88 72.9778 112.078 72.8241 112.222C72.6703 112.367 72.4733 112.452 72.2584 112.467C72.0436 112.481 71.8209 112.425 71.6173 112.305C71.4138 112.186 71.2387 112.007 71.1151 111.793C70.9494 111.506 70.8871 111.175 70.9419 110.873C70.9966 110.571 71.1639 110.322 71.407 110.181ZM68.907 105.851C69.0884 105.747 69.3024 105.708 69.5218 105.739C69.7413 105.771 69.9564 105.873 70.14 106.031C70.3236 106.188 70.4671 106.396 70.553 106.626C70.6388 106.856 70.663 107.099 70.6222 107.325C70.5814 107.55 70.4778 107.748 70.3241 107.892C70.1703 108.037 69.9733 108.122 69.7584 108.137C69.5436 108.151 69.3209 108.095 69.1173 107.975C68.9138 107.855 68.7387 107.677 68.6151 107.463C68.4494 107.176 68.3871 106.845 68.4419 106.543C68.4966 106.24 68.6639 105.992 68.907 105.851ZM66.407 101.521C66.5884 101.416 66.8024 101.377 67.0218 101.409C67.2413 101.441 67.4564 101.543 67.64 101.7C67.8236 101.858 67.9671 102.065 68.053 102.296C68.1388 102.526 68.163 102.769 68.1222 102.995C68.0814 103.22 67.9778 103.417 67.8241 103.562C67.6703 103.706 67.4733 103.792 67.2584 103.806C67.0436 103.821 66.8209 103.765 66.6173 103.645C66.4138 103.525 66.2387 103.347 66.1151 103.133C65.9494 102.846 65.8871 102.515 65.9419 102.213C65.9966 101.91 66.1639 101.662 66.407 101.521ZM63.907 97.191C64.0884 97.0863 64.3024 97.0473 64.5218 97.0792C64.7413 97.1111 64.9564 97.2126 65.14 97.3704C65.3236 97.5281 65.4671 97.7353 65.553 97.9657C65.6388 98.1961 65.663 98.4392 65.6222 98.6647C65.5814 98.8901 65.4778 99.0874 65.3241 99.2318C65.1703 99.3763 64.9733 99.4615 64.7584 99.4763C64.5436 99.4911 64.3209 99.4349 64.1173 99.315C63.9138 99.1952 63.7387 99.017 63.6151 98.8029C63.4494 98.5158 63.3871 98.1848 63.4419 97.8825C63.4966 97.5802 63.6639 97.3314 63.907 97.191ZM61.407 92.8609C61.5884 92.7562 61.8024 92.7172 62.0218 92.7491C62.2413 92.781 62.4564 92.8825 62.64 93.0402C62.8236 93.198 62.9671 93.4051 63.053 93.6356C63.1388 93.866 63.163 94.1091 63.1222 94.3345C63.0814 94.56 62.9778 94.7572 62.8241 94.9017C62.6703 95.0462 62.4733 95.1314 62.2584 95.1462C62.0436 95.161 61.8209 95.1048 61.6173 94.9849C61.4138 94.8651 61.2387 94.6869 61.1151 94.4728C60.9494 94.1857 60.8871 93.8546 60.9419 93.5523C60.9966 93.25 61.1639 93.0013 61.407 92.8609ZM58.907 88.5308C59.0884 88.4261 59.3024 88.3871 59.5218 88.419C59.7413 88.4509 59.9564 88.5524 60.14 88.7101C60.3236 88.8679 60.4671 89.075 60.553 89.3054C60.6388 89.5359 60.663 89.779 60.6222 90.0044C60.5814 90.2298 60.4778 90.4271 60.3241 90.5716C60.1703 90.716 59.9733 90.8012 59.7584 90.816C59.5436 90.8308 59.3209 90.7746 59.1173 90.6548C58.9138 90.5349 58.7387 90.3568 58.6151 90.1427C58.4494 89.8556 58.3871 89.5245 58.4419 89.2222C58.4966 88.9199 58.6639 88.6712 58.907 88.5308ZM56.407 84.2007C56.5884 84.096 56.8024 84.057 57.0218 84.0889C57.2413 84.1207 57.4564 84.2222 57.64 84.38C57.8236 84.5377 57.9671 84.7449 58.053 84.9753C58.1388 85.2057 58.163 85.4489 58.1222 85.6743C58.0814 85.8997 57.9778 86.097 57.8241 86.2414C57.6703 86.3859 57.4733 86.4711 57.2584 86.4859C57.0436 86.5007 56.8208 86.4445 56.6173 86.3247C56.4138 86.2048 56.2387 86.0267 56.1151 85.8126C55.9494 85.5255 55.8871 85.1944 55.9419 84.8921C55.9966 84.5898 56.1639 84.3411 56.407 84.2007ZM53.907 79.8705C54.0884 79.7658 54.3024 79.7268 54.5218 79.7587C54.7413 79.7906 54.9564 79.8921 55.14 80.0499C55.3236 80.2076 55.4671 80.4148 55.553 80.6452C55.6388 80.8756 55.663 81.1187 55.6222 81.3442C55.5814 81.5696 55.4778 81.7669 55.3241 81.9113C55.1703 82.0558 54.9733 82.141 54.7584 82.1558C54.5436 82.1706 54.3208 82.1144 54.1173 81.9945C53.9138 81.8747 53.7387 81.6965 53.6151 81.4824C53.4494 81.1953 53.3871 80.8643 53.4419 80.562C53.4966 80.2597 53.6639 80.0109 53.907 79.8705ZM51.407 75.5404C51.5884 75.4357 51.8024 75.3967 52.0218 75.4286C52.2413 75.4605 52.4564 75.562 52.64 75.7197C52.8236 75.8775 52.9671 76.0846 53.053 76.3151C53.1388 76.5455 53.163 76.7886 53.1222 77.014C53.0814 77.2395 52.9778 77.4367 52.8241 77.5812C52.6703 77.7256 52.4733 77.8109 52.2584 77.8257C52.0436 77.8405 51.8208 77.7843 51.6173 77.6644C51.4138 77.5445 51.2387 77.3664 51.1151 77.1523C50.9494 76.8652 50.8871 76.5341 50.9419 76.2318C50.9966 75.9295 51.1639 75.6808 51.407 75.5404ZM48.907 71.2103C49.0884 71.1056 49.3024 71.0666 49.5218 71.0985C49.7413 71.1304 49.9564 71.2319 50.14 71.3896C50.3236 71.5473 50.4671 71.7545 50.553 71.9849C50.6388 72.2153 50.663 72.4585 50.6222 72.6839C50.5814 72.9093 50.4778 73.1066 50.3241 73.2511C50.1703 73.3955 49.9733 73.4807 49.7584 73.4955C49.5436 73.5103 49.3208 73.4541 49.1173 73.3343C48.9138 73.2144 48.7387 73.0363 48.6151 72.8222C48.4494 72.5351 48.3871 72.204 48.4419 71.9017C48.4966 71.5994 48.6639 71.3507 48.907 71.2103ZM46.407 66.8801C46.5884 66.7754 46.8024 66.7365 47.0218 66.7683C47.2413 66.8002 47.4564 66.9017 47.64 67.0595C47.8236 67.2172 47.9671 67.4244 48.053 67.6548C48.1388 67.8852 48.163 68.1283 48.1222 68.3538C48.0814 68.5792 47.9778 68.7765 47.8241 68.9209C47.6703 69.0654 47.4733 69.1506 47.2584 69.1654C47.0436 69.1802 46.8208 69.124 46.6173 69.0041C46.4138 68.8843 46.2387 68.7062 46.1151 68.4921C45.9494 68.2049 45.8871 67.8739 45.9419 67.5716C45.9966 67.2693 46.1639 67.0205 46.407 66.8801ZM43.907 62.55C44.0884 62.4453 44.3024 62.4063 44.5218 62.4382C44.7413 62.4701 44.9564 62.5716 45.14 62.7294C45.3236 62.8871 45.4671 63.0943 45.553 63.3247C45.6388 63.5551 45.663 63.7982 45.6222 64.0236C45.5814 64.2491 45.4778 64.4463 45.3241 64.5908C45.1703 64.7353 44.9733 64.8205 44.7584 64.8353C44.5436 64.8501 44.3208 64.7939 44.1173 64.674C43.9138 64.5542 43.7387 64.376 43.6151 64.1619C43.4494 63.8748 43.3871 63.5437 43.4419 63.2415C43.4966 62.9392 43.6639 62.6904 43.907 62.55Z" fill="#FCEAA7" stroke="#F1C111" stroke-width="0.25" mask="url(#path-1-inside-1_1178_60070)"/>
<ellipse cx="98" cy="146.5" rx="80" ry="2.5" fill="#D9D9D9" fill-opacity="0.5"/>
</svg>