<svg xmlns="http://www.w3.org/2000/svg" width="32" height="33" viewBox="0 0 32 33" fill="none">
  <g clip-path="url(#clip0_881_29708)">
    <path d="M12 24.5C12 25.5609 12.4214 26.5783 13.1716 27.3284C13.9217 28.0786 14.9391 28.5 16 28.5C17.0609 28.5 18.0783 28.0786 18.8284 27.3284C19.5786 26.5783 20 25.5609 20 24.5" stroke="#111217" stroke-width="1.5" stroke-linecap="round" stroke-linejoin="round"/>
    <path d="M6.99984 13.5C6.99984 11.1131 7.94806 8.82387 9.63588 7.13604C11.3237 5.44821 13.6129 4.5 15.9998 4.5C18.3868 4.5 20.676 5.44821 22.3638 7.13604C24.0516 8.82387 24.9998 11.1131 24.9998 13.5C24.9998 17.9775 26.0373 21.575 26.8623 23C26.95 23.1518 26.9962 23.3239 26.9963 23.4991C26.9965 23.6744 26.9506 23.8466 26.8632 23.9985C26.7759 24.1504 26.6501 24.2767 26.4986 24.3647C26.3471 24.4527 26.1751 24.4994 25.9998 24.5H5.99984C5.82482 24.4989 5.65314 24.452 5.50195 24.3638C5.35077 24.2756 5.22539 24.1492 5.13833 23.9974C5.05127 23.8456 5.00559 23.6735 5.00586 23.4985C5.00613 23.3235 5.05233 23.1516 5.13984 23C5.96359 21.575 6.99984 17.9763 6.99984 13.5Z" stroke="#111217" stroke-width="1.5" stroke-linecap="round" stroke-linejoin="round"/>
  </g>
  <defs>
    <clipPath id="clip0_881_29708">
      <rect width="32" height="32" fill="white" transform="translate(0 0.5)"/>
    </clipPath>
  </defs>
</svg>