<svg xmlns="http://www.w3.org/2000/svg" width="25" height="24" viewBox="0 0 25 24" fill="none">
  <g clip-path="url(#clip0_1656_2904)">
    <path d="M16.25 21L11 17.25L5.75 21V6.75C5.75 6.55109 5.82902 6.36032 5.96967 6.21967C6.11032 6.07902 6.30109 6 6.5 6H15.5C15.6989 6 15.8897 6.07902 16.0303 6.21967C16.171 6.36032 16.25 6.55109 16.25 6.75V21Z" stroke="#90949E" stroke-width="1.5" stroke-linecap="round" stroke-linejoin="round"/>
    <path d="M8.75 6V3.75C8.75 3.55109 8.82902 3.36032 8.96967 3.21967C9.11032 3.07902 9.30109 3 9.5 3H18.5C18.6989 3 18.8897 3.07902 19.0303 3.21967C19.171 3.36032 19.25 3.55109 19.25 3.75V18L16.25 15.8578" stroke="#90949E" stroke-width="1.5" stroke-linecap="round" stroke-linejoin="round"/>
  </g>
  <defs>
    <clipPath id="clip0_1656_2904">
      <rect width="24" height="24" fill="white" transform="translate(0.5)"/>
    </clipPath>
  </defs>
</svg>